<?xml version="1.0" encoding="utf-8"?>
<svg xmlns="http://www.w3.org/2000/svg" xmlns:xlink="http://www.w3.org/1999/xlink">
  <symbol fill="currentColor" class="bi bi-ocsd-logo" viewBox="0 0 64 64" id="ocsd-logo" xmlns="http://www.w3.org/2000/svg">
    <g transform="translate(-1.9999999,-2)">
      <path d="M 64.61085,16.2024 C 63.036294,9.892205 58.10917,4.965205 51.798824,3.390689 40.00591,1.536437 27.99566,1.536437 16.202748,3.390689 9.892399,4.965205 4.965278,9.892205 3.390723,16.2024 c -1.8542974,11.79262 -1.8542974,23.80258 0,35.5952 1.574555,6.310195 6.501676,11.237195 12.812025,12.81171 11.792912,1.85425 23.803162,1.85425 35.596076,0 6.310346,-1.574515 11.23747,-6.501515 12.812026,-12.81171 1.8522,-11.792785 1.8522,-23.802415 0,-35.5952 z"/>
      <path d="m 33.326584,36.328717 c -2.826734,4.416069 -6.613679,8.163333 -11.089291,10.973098 -1.45404,0.884825 -3.280859,0.931785 -4.780067,0.122881 -1.499208,-0.808906 -2.438187,-2.348166 -2.45694,-4.02764 -0.01875,-1.679476 0.885631,-3.238576 2.366416,-4.079556 2.319517,-1.431727 4.377571,-3.23587 6.088238,-5.33711 -1.754646,-2.047764 -3.80592,-3.83158 -6.088238,-5.294414 -2.257639,-1.320526 -2.997498,-4.187934 -1.652522,-6.404532 1.344977,-2.216599 4.265474,-2.943009 6.523113,-1.622482 4.466727,2.784675 8.253057,6.502178 11.089291,10.887705 0.897886,1.47213 0.897886,3.30992 0,4.78205 z" fill="#ffffff"/>
      <path d="M 49.2,46 H 37.8 C 35.68889,46 34,44.98 34,43 c 0,-1.98 1.71,-3 3.8,-3 h 11.4 c 2.11111,0 3.8,1.02 3.8,3 0,1.98 -1.71,3 -3.8,3 z" fill="#ffffff"/>
    </g>
  </symbol>

  <symbol fill="currentColor" class="bi bi-home" viewBox="0 0 16 16" id="home" xmlns="http://www.w3.org/2000/svg">
    <path d="M8.354 1.146a.5.5 0 0 0-.708 0l-6 6A.5.5 0 0 0 1.5 7.5v7a.5.5 0 0 0 .5.5h4.5a.5.5 0 0 0 .5-.5v-4h2v4a.5.5 0 0 0 .5.5H14a.5.5 0 0 0 .5-.5v-7a.5.5 0 0 0-.146-.354L13 5.793V2.5a.5.5 0 0 0-.5-.5h-1a.5.5 0 0 0-.5.5v1.293L8.354 1.146zM2.5 14V7.707l5.5-5.5 5.5 5.5V14H10v-4a.5.5 0 0 0-.5-.5h-3a.5.5 0 0 0-.5.5v4H2.5z"/>
  </symbol>
  <symbol fill="currentColor" class="bi bi-person" viewBox="0 0 16 16" id="person" xmlns="http://www.w3.org/2000/svg">
    <path d="M8 8a3 3 0 1 0 0-6 3 3 0 0 0 0 6zm2-3a2 2 0 1 1-4 0 2 2 0 0 1 4 0zm4 8c0 1-1 1-1 1H3s-1 0-1-1 1-4 6-4 6 3 6 4zm-1-.004c-.001-.246-.154-.986-.832-1.664C11.516 10.68 10.289 10 8 10c-2.29 0-3.516.68-4.168 1.332-.678.678-.83 1.418-.832 1.664h10z"/>
  </symbol>
  <symbol fill="currentColor" class="bi bi-photo" viewBox="0 0 16 16" id="photo" xmlns="http://www.w3.org/2000/svg">
    <path d="M15 12a1 1 0 0 1-1 1H2a1 1 0 0 1-1-1V6a1 1 0 0 1 1-1h1.172a3 3 0 0 0 2.12-.879l.83-.828A1 1 0 0 1 6.827 3h2.344a1 1 0 0 1 .707.293l.828.828A3 3 0 0 0 12.828 5H14a1 1 0 0 1 1 1v6zM2 4a2 2 0 0 0-2 2v6a2 2 0 0 0 2 2h12a2 2 0 0 0 2-2V6a2 2 0 0 0-2-2h-1.172a2 2 0 0 1-1.414-.586l-.828-.828A2 2 0 0 0 9.172 2H6.828a2 2 0 0 0-1.414.586l-.828.828A2 2 0 0 1 3.172 4H2z"/>
    <path d="M8 11a2.5 2.5 0 1 1 0-5 2.5 2.5 0 0 1 0 5zm0 1a3.5 3.5 0 1 0 0-7 3.5 3.5 0 0 0 0 7zM3 6.5a.5.5 0 1 1-1 0 .5.5 0 0 1 1 0z"/>
  </symbol>
  <symbol fill="currentColor" class="bi bi-ldap" viewBox="0 0 16 16" id="ldap" xmlns="http://www.w3.org/2000/svg">
    <path d="M5.338 1.59a61.44 61.44 0 0 0-2.837.856.481.481 0 0 0-.328.39c-.554 4.157.726 7.19 2.253 9.188a10.725 10.725 0 0 0 2.287 2.233c.346.244.652.42.893.533.12.057.218.095.293.118a.55.55 0 0 0 .101.025.615.615 0 0 0 .1-.025c.076-.023.174-.061.294-.118.24-.113.547-.29.893-.533a10.726 10.726 0 0 0 2.287-2.233c1.527-1.997 2.807-5.031 2.253-9.188a.48.48 0 0 0-.328-.39c-.651-.213-1.75-.56-2.837-.855C9.552 1.29 8.531 1.067 8 1.067c-.53 0-1.552.223-2.662.524zM5.072.56C6.157.265 7.31 0 8 0s1.843.265 2.928.56c1.11.3 2.229.655 2.887.87a1.54 1.54 0 0 1 1.044 1.262c.596 4.477-.787 7.795-2.465 9.99a11.775 11.775 0 0 1-2.517 2.453 7.159 7.159 0 0 1-1.048.625c-.28.132-.581.24-.829.24s-.548-.108-.829-.24a7.158 7.158 0 0 1-1.048-.625 11.777 11.777 0 0 1-2.517-2.453C1.928 10.487.545 7.169 1.141 2.692A1.54 1.54 0 0 1 2.185 1.43 62.456 62.456 0 0 1 5.072.56z"/>
     <path d="M9.5 6.5a1.5 1.5 0 0 1-1 1.415l.385 1.99a.5.5 0 0 1-.491.595h-.788a.5.5 0 0 1-.49-.595l.384-1.99a1.5 1.5 0 1 1 2-1.415z"/>
  </symbol>
  <symbol fill="currentColor" class="bi bi-email" viewBox="0 0 16 16" id="email" xmlns="http://www.w3.org/2000/svg">
    <path d="M0 4a2 2 0 0 1 2-2h12a2 2 0 0 1 2 2v8a2 2 0 0 1-2 2H2a2 2 0 0 1-2-2V4zm2-1a1 1 0 0 0-1 1v.217l7 4.2 7-4.2V4a1 1 0 0 0-1-1H2zm13 2.383l-4.758 2.855L15 11.114v-5.73zm-.034 6.878L9.271 8.82 8 9.583 6.728 8.82l-5.694 3.44A1 1 0 0 0 2 13h12a1 1 0 0 0 .966-.739zM1 11.114l4.758-2.876L1 5.383v5.73z"/>
  </symbol>
  <symbol fill="currentColor" class="bi bi-logs" viewBox="0 0 16 16" id="logs" xmlns="http://www.w3.org/2000/svg">
    <path d="M8.515 1.019A7 7 0 0 0 8 1V0a8 8 0 0 1 .589.022l-.074.997zm2.004.45a7.003 7.003 0 0 0-.985-.299l.219-.976c.383.086.76.2 1.126.342l-.36.933zm1.37.71a7.01 7.01 0 0 0-.439-.27l.493-.87a8.025 8.025 0 0 1 .979.654l-.615.789a6.996 6.996 0 0 0-.418-.302zm1.834 1.79a6.99 6.99 0 0 0-.653-.796l.724-.69c.27.285.52.59.747.91l-.818.576zm.744 1.352a7.08 7.08 0 0 0-.214-.468l.893-.45a7.976 7.976 0 0 1 .45 1.088l-.95.313a7.023 7.023 0 0 0-.179-.483zm.53 2.507a6.991 6.991 0 0 0-.1-1.025l.985-.17c.067.386.106.778.116 1.17l-1 .025zm-.131 1.538c.033-.17.06-.339.081-.51l.993.123a7.957 7.957 0 0 1-.23 1.155l-.964-.267c.046-.165.086-.332.12-.501zm-.952 2.379c.184-.29.346-.594.486-.908l.914.405c-.16.36-.345.706-.555 1.038l-.845-.535zm-.964 1.205c.122-.122.239-.248.35-.378l.758.653a8.073 8.073 0 0 1-.401.432l-.707-.707z"/>
    <path d="M8 1a7 7 0 1 0 4.95 11.95l.707.707A8.001 8.001 0 1 1 8 0v1z"/>
    <path d="M7.5 3a.5.5 0 0 1 .5.5v5.21l3.248 1.856a.5.5 0 0 1-.496.868l-3.5-2A.5.5 0 0 1 7 9V3.5a.5.5 0 0 1 .5-.5z"/>
  </symbol>
  <symbol fill="currentColor" class="bi bi-signout" viewBox="0 0 16 16" id="signout" xmlns="http://www.w3.org/2000/svg">
    <path fill-rule="evenodd" d="M10 12.5a.5.5 0 0 1-.5.5h-8a.5.5 0 0 1-.5-.5v-9a.5.5 0 0 1 .5-.5h8a.5.5 0 0 1 .5.5v2a.5.5 0 0 0 1 0v-2A1.5 1.5 0 0 0 9.5 2h-8A1.5 1.5 0 0 0 0 3.5v9A1.5 1.5 0 0 0 1.5 14h8a1.5 1.5 0 0 0 1.5-1.5v-2a.5.5 0 0 0-1 0v2z"/>
    <path fill-rule="evenodd" d="M15.854 8.354a.5.5 0 0 0 0-.708l-3-3a.5.5 0 0 0-.708.708L14.293 7.5H5.5a.5.5 0 0 0 0 1h8.793l-2.147 2.146a.5.5 0 0 0 .708.708l3-3z"/>
  </symbol>
  <symbol fill="currentColor" class="bi bi-bell" viewBox="0 0 16 16" id="bell" xmlns="http://www.w3.org/2000/svg">
    <path d="M8 16a2 2 0 0 0 2-2H6a2 2 0 0 0 2 2zM8 1.918l-.797.161A4.002 4.002 0 0 0 4 6c0 .628-.134 2.197-.459 3.742-.16.767-.376 1.566-.663 2.258h10.244c-.287-.692-.502-1.49-.663-2.258C12.134 8.197 12 6.628 12 6a4.002 4.002 0 0 0-3.203-3.92L8 1.917zM14.22 12c.223.447.481.801.78 1H1c.299-.199.557-.553.78-1C2.68 10.2 3 6.88 3 6c0-2.42 1.72-4.44 4.005-4.901a1 1 0 1 1 1.99 0A5.002 5.002 0 0 1 13 6c0 .88.32 4.2 1.22 6z"/>
  </symbol>
</svg>
