<?xml version="1.0" encoding="UTF-8" standalone="no"?>
<svg
   xmlns:dc="http://purl.org/dc/elements/1.1/"
   xmlns:cc="http://creativecommons.org/ns#"
   xmlns:rdf="http://www.w3.org/1999/02/22-rdf-syntax-ns#"
   xmlns:svg="http://www.w3.org/2000/svg"
   xmlns="http://www.w3.org/2000/svg"
   viewBox="0 0 793.70667 1122.52"
   height="1122.52"
   width="793.70667"
   xml:space="preserve"
   id="svg2"
   version="1.1"><metadata
     id="metadata8"><rdf:RDF><cc:Work
         rdf:about=""><dc:format>image/svg+xml</dc:format><dc:type
           rdf:resource="http://purl.org/dc/dcmitype/StillImage" /></cc:Work></rdf:RDF></metadata><defs
     id="defs6"><clipPath
       id="clipPath18"
       clipPathUnits="userSpaceOnUse"><path
         id="path16"
         d="M 0,841.89 H 595.28 V 0 H 0 Z" /></clipPath></defs><g
     transform="matrix(1.3333333,0,0,-1.3333333,0,1122.52)"
     id="g10"><g
       id="g12"><g
         clip-path="url(#clipPath18)"
         id="g14"><g
           transform="translate(27.6182,740.2275)"
           id="g20"><path
             id="path22"
             style="fill:#000000;fill-opacity:1;fill-rule:evenodd;stroke:none"
             d="m 0,0 v -268.021 c 0,-155.391 70.35,-249.424 129.367,-300.946 64.371,-56.201 131.975,-77.234 140.867,-77.234 8.891,0 76.496,21.033 140.87,77.234 59.013,51.522 129.363,145.555 129.363,300.946 V 0 Z" /></g><g
           transform="translate(27.6182,740.2275)"
           id="g24"><path
             id="path26"
             style="fill:none;stroke:#000000;stroke-width:1;stroke-linecap:butt;stroke-linejoin:miter;stroke-miterlimit:4;stroke-dasharray:none;stroke-opacity:1"
             d="m 0,0 v -268.021 c 0,-155.391 70.35,-249.424 129.367,-300.946 64.371,-56.201 131.975,-77.234 140.867,-77.234 8.891,0 76.496,21.033 140.87,77.234 59.013,51.522 129.363,145.555 129.363,300.946 V 0 Z" /></g><g
           transform="translate(34.5557,733.2588)"
           id="g28"><path
             id="path30"
             style="fill:#faba35;fill-opacity:1;fill-rule:evenodd;stroke:none"
             d="m 0,0 v -261.053 c 0,-293.556 250.85,-371.211 263.297,-371.211 12.447,0 263.297,77.655 263.297,371.211 V 0 Z" /></g><g
           transform="translate(34.5557,733.2588)"
           id="g32"><path
             id="path34"
             style="fill:none;stroke:#000000;stroke-width:1;stroke-linecap:butt;stroke-linejoin:miter;stroke-miterlimit:4;stroke-dasharray:none;stroke-opacity:1"
             d="m 0,0 v -261.053 c 0,-293.556 250.85,-371.211 263.297,-371.211 12.447,0 263.297,77.655 263.297,371.211 V 0 Z" /></g><g
           transform="translate(322.8018,446.1729)"
           id="g36"><path
             id="path38"
             style="fill:#a72c31;fill-opacity:1;fill-rule:nonzero;stroke:none"
             d="m 0,0 h 195.582 c 4.598,-4.717 6.055,-9.426 0,-19.609 17.176,0 14.729,29.951 14.729,29.951 0,0 12.859,2.601 12.859,13.791 0,11.197 -12.859,13.793 -12.859,13.793 0,0 2.447,29.949 -14.729,29.949 6.055,-10.174 4.598,-14.885 0,-19.607 L 0.01,48.27 v 182.709 c 14.81,12.953 9.926,5.361 24.004,0 0,28.111 -33.282,24.101 -33.282,24.101 0,0 -6.628,21.027 -15.681,21.027 -9.059,0 -15.68,-21.027 -15.68,-21.027 0,0 -33.289,4.01 -33.289,-24.101 14.084,5.357 9.191,12.953 24.008,0 V 48.27 h -195.572 c -4.602,4.72 -6.069,9.429 0,19.605 -17.184,0 -14.733,-29.949 -14.733,-29.949 0,0 -12.855,-2.596 -12.855,-13.791 0,-11.192 12.855,-13.793 12.855,-13.793 0,0 -2.451,-29.951 14.733,-29.951 -6.069,10.183 -4.602,14.892 0,19.609 H -49.91 v -279.582 c -14.817,-12.957 -9.924,-5.357 -24.008,0 0,-28.111 33.289,-24.102 33.289,-24.102 0,0 6.621,-21.023 15.68,-21.023 9.053,0 15.681,21.023 15.681,21.023 0,0 33.282,-4 33.282,24.102 -14.078,-5.35 -9.194,-12.951 -24.004,0 C 0.01,-279.582 0.01,0 0,0" /></g><g
           transform="translate(98.7119,662.2432)"
           id="g40"><path
             id="path42"
             style="fill:#a72c31;fill-opacity:1;fill-rule:nonzero;stroke:none"
             d="M 0,0 C -9.961,1.65 -13.994,0.701 -23.842,-1.027 -17.451,5.748 -2.697,8.438 2.85,8.691 0.963,6.451 0.803,2.955 0,0" /></g><g
           transform="translate(168.292,557.4131)"
           id="g44"><path
             id="path46"
             style="fill:#a72c31;fill-opacity:1;fill-rule:nonzero;stroke:none"
             d="m 0,0 c -2.486,-3.014 -4.361,-6.551 -6.393,-9.924 -1.773,-2.953 -1.586,-6.195 -3.904,-8.654 -1.062,-1.123 -2.111,-3.445 -1.752,-4.865 0.391,-1.575 4.74,-1.842 6.098,-1.842 1.387,0 2.615,-0.639 3.867,-1.19 4.402,-1.955 3.08,-3.121 0.326,-2.65 -0.916,0.15 -1.816,0.932 -2.795,0.766 -1.076,-0.178 -1.713,-0.914 -3.029,-0.998 -2.018,-0.129 -3.332,-0.881 -5.356,-0.737 -1.21,0.076 -3.468,1.285 -4.529,0.573 -0.978,-0.667 -2.047,-0.944 -3.146,-1.293 -0.821,-0.268 -1.194,-0.641 -2.116,-0.737 -1.734,-0.179 -4.779,0.397 -6.265,-0.627 -1.863,-1.269 -2.08,-2.886 -4.182,-2.183 -1.322,0.443 0.278,3.715 1.016,4.144 0.808,0.477 1.619,0.946 2.453,1.381 1.047,0.537 2.398,0.022 3.277,0.477 0.241,0.13 0.539,0.433 0.725,0.656 -2.879,0.73 -5.725,2.203 -8.684,2.203 -1.908,0 -2.685,-0.654 -3.922,-2.273 -0.539,-0.704 -3.353,-2.707 -3.353,-0.383 0,2.429 3.756,6.605 5.869,6.912 3.297,0.459 5.768,-1.863 8.852,-1.992 3.093,-0.123 6.537,-0.651 8.297,2.761 1.521,2.959 3.751,5.268 5.734,7.893 2.01,2.658 2.209,1.848 4.004,4.975 0.887,1.535 3.187,6.685 4.054,8.066 C -4.398,1.176 -0.885,0 0,0" /></g><g
           transform="translate(176.3799,563.2412)"
           id="g48"><path
             id="path50"
             style="fill:#a72c31;fill-opacity:1;fill-rule:nonzero;stroke:none"
             d="m 0,0 c -0.916,-3.016 -0.871,-9.352 -2.023,-12.582 -1.213,-3.361 -2.288,-3.08 -3.153,-6.281 -1.803,-6.709 -15.652,2.705 -16.23,-5.049 3.633,-0.281 3.472,1.816 11.209,-0.469 0.551,-0.164 1.674,0.445 1.59,-0.683 -0.049,-0.629 -1.487,-0.899 -1.905,-0.922 -1.818,-0.082 -3.64,-0.231 -5.451,-0.477 -1.713,-0.244 -3.1,-0.496 -4.402,-1.746 -1.473,-1.406 4.517,-0.17 5.123,-0.154 3.58,0.092 5.81,-0.869 9.017,0.457 2.436,1.008 7.842,0.57 10.342,0.633 1.811,0.056 2.633,2.169 4.17,2.543 1.231,0.292 4.127,-1.95 4.858,-1.168 1.697,1.8 -5.686,4.017 -7.481,4.017 -1.707,0 -3.223,-0.285 -4.896,0.156 -2.227,0.596 -1.778,2.33 -1.291,4.246 1.564,6.063 3.793,11.487 4.56,17.803 C 2.691,0.396 2.994,1.316 1.541,1.389 1.541,1.199 0,0.182 0,0" /></g><g
           transform="translate(95.7725,662.5244)"
           id="g52"><path
             id="path54"
             style="fill:#000000;fill-opacity:1;fill-rule:nonzero;stroke:none"
             d="m 0,0 c 7.607,-2.975 9.459,-14.523 10.174,-21.641 0.396,-3.963 -0.307,-8.226 -0.406,-12.205 -0.112,-4.293 -0.137,-8.588 -0.223,-12.888 -0.086,-4.022 1.359,-7.832 2.285,-11.727 0.906,-3.764 4.248,-9.361 6.44,-12.402 4.722,-6.541 9.517,-12.946 16.779,-16.602 11.023,-5.539 25.769,-4.734 31.984,-15.521 0.922,-1.594 0.076,-2.125 2.074,-2.125 1.844,0 3.35,-1.577 3.557,0.548 0.315,3.233 -1.607,1.59 -2.707,4.856 -0.432,1.283 1.656,2.809 2.656,1.937 0.94,-0.806 2.774,-2.043 3.998,-1.775 2.993,0.633 4.399,4.957 3.985,0.465 0.488,0.248 3.701,-1.26 4.025,-0.086 0.26,0.967 1.154,0.84 1.723,1.135 2.72,1.439 8.228,1.377 11.144,1 4.252,-0.532 14.846,1.885 24.489,0.418 3.652,-0.553 8.652,-2.801 14.183,-4.694 7.147,-2.197 20.838,-7.064 17.951,-3.24 -1.744,2.305 -5.5,3.815 -7.941,5.207 -2.881,1.652 -5.85,3.174 -8.801,4.676 -0.256,0.127 -4.078,2.174 -2.564,2.107 1.781,-0.086 3.068,-0.396 4.769,-0.922 3.492,-1.082 6.344,-1.859 9.953,-2.066 0.186,1.492 -1.529,2.992 -2.824,3.229 3.418,0.064 7.016,0.433 10.41,0 -5.058,6.045 -11.797,9.38 -18.613,12.701 -7.676,3.736 -11.68,5.383 -19.541,9.273 -3.049,1.508 -7.297,4.844 -9.83,5.039 -4.287,0.317 13.66,-5.922 5.545,2.246 -5.49,5.52 -27.424,16.385 -33.742,20.754 -3.561,2.457 -6.996,5.223 -10.879,7.074 -3.989,1.915 -7.989,3.778 -12.014,5.612 -7.396,3.381 -14.324,7.109 -18.318,14.785 -1.848,3.539 -2.575,8.115 -3.604,11.988 C 35.084,1.002 33.191,4.98 31.281,8.41 27.559,15.107 16.461,15.541 10.211,13.697 7.33,12.848 5.244,10.57 3.104,8.598 0.711,6.404 1.236,3.131 0.504,-0.078" /></g><g
           transform="translate(364.7471,662.2432)"
           id="g56"><path
             id="path58"
             style="fill:#a72c31;fill-opacity:1;fill-rule:nonzero;stroke:none"
             d="M 0,0 C -9.963,1.65 -13.996,0.701 -23.842,-1.027 -17.455,5.748 -2.697,8.438 2.846,8.691 0.965,6.451 0.803,2.955 0,0" /></g><g
           transform="translate(434.3271,557.4131)"
           id="g60"><path
             id="path62"
             style="fill:#a72c31;fill-opacity:1;fill-rule:nonzero;stroke:none"
             d="m 0,0 c -2.486,-3.014 -4.363,-6.551 -6.395,-9.924 -1.769,-2.953 -1.584,-6.195 -3.902,-8.654 -1.062,-1.123 -2.109,-3.445 -1.752,-4.865 0.389,-1.575 4.742,-1.842 6.096,-1.842 1.39,0 2.619,-0.639 3.867,-1.19 4.402,-1.955 3.082,-3.121 0.328,-2.65 -0.918,0.15 -1.816,0.932 -2.795,0.766 -1.076,-0.178 -1.715,-0.914 -3.033,-0.998 -2.016,-0.129 -3.328,-0.881 -5.353,-0.737 -1.209,0.076 -3.467,1.285 -4.53,0.573 -0.978,-0.667 -2.045,-0.944 -3.142,-1.293 -0.821,-0.268 -1.198,-0.641 -2.119,-0.737 -1.735,-0.179 -4.78,0.397 -6.264,-0.627 -1.863,-1.269 -2.08,-2.886 -4.182,-2.183 -1.32,0.443 0.28,3.715 1.016,4.144 0.806,0.477 1.619,0.946 2.453,1.381 1.047,0.537 2.396,0.022 3.277,0.477 0.241,0.13 0.537,0.433 0.723,0.656 -2.879,0.73 -5.725,2.203 -8.682,2.203 -1.91,0 -2.685,-0.654 -3.922,-2.273 -0.539,-0.704 -3.353,-2.707 -3.353,-0.383 0,2.429 3.756,6.605 5.869,6.912 3.297,0.459 5.768,-1.863 8.852,-1.992 3.095,-0.123 6.535,-0.651 8.297,2.761 1.521,2.959 3.75,5.268 5.734,7.893 2.008,2.658 2.207,1.848 4.002,4.975 0.889,1.535 3.189,6.685 4.055,8.066 C -4.4,1.176 -0.887,0 0,0" /></g><g
           transform="translate(442.415,563.2412)"
           id="g64"><path
             id="path66"
             style="fill:#a72c31;fill-opacity:1;fill-rule:nonzero;stroke:none"
             d="m 0,0 c -0.918,-3.016 -0.871,-9.352 -2.025,-12.582 -1.215,-3.361 -2.286,-3.08 -3.153,-6.281 -1.802,-6.709 -15.65,2.705 -16.23,-5.049 3.635,-0.281 3.472,1.816 11.211,-0.469 0.551,-0.164 1.672,0.445 1.59,-0.683 -0.047,-0.629 -1.489,-0.899 -1.907,-0.922 -1.816,-0.082 -3.638,-0.231 -5.451,-0.477 -1.711,-0.244 -3.098,-0.496 -4.4,-1.746 -1.473,-1.406 4.515,-0.17 5.123,-0.154 3.58,0.092 5.808,-0.869 9.017,0.457 2.434,1.008 7.838,0.57 10.342,0.633 1.809,0.056 2.633,2.169 4.168,2.543 1.233,0.292 4.125,-1.95 4.858,-1.168 1.697,1.8 -5.682,4.017 -7.481,4.017 -1.707,0 -3.223,-0.285 -4.896,0.156 -2.225,0.596 -1.776,2.33 -1.289,4.246 C 1.039,-11.416 3.27,-5.992 4.033,0.324 2.689,0.396 2.99,1.316 1.539,1.389 1.539,1.199 0,0.182 0,0" /></g><g
           transform="translate(361.8076,662.5244)"
           id="g68"><path
             id="path70"
             style="fill:#000000;fill-opacity:1;fill-rule:nonzero;stroke:none"
             d="m 0,0 c 7.607,-2.975 9.457,-14.523 10.176,-21.641 0.394,-3.963 -0.311,-8.226 -0.408,-12.205 -0.112,-4.293 -0.139,-8.588 -0.223,-12.888 -0.088,-4.022 1.359,-7.832 2.285,-11.727 0.904,-3.764 4.248,-9.361 6.44,-12.402 4.724,-6.541 9.517,-12.946 16.777,-16.602 11.023,-5.539 25.771,-4.734 31.988,-15.521 0.922,-1.594 0.074,-2.125 2.072,-2.125 1.844,0 3.346,-1.577 3.555,0.548 0.317,3.233 -1.607,1.59 -2.707,4.856 -0.432,1.283 1.654,2.809 2.656,1.937 0.942,-0.806 2.778,-2.043 4,-1.775 2.991,0.633 4.397,4.957 3.983,0.465 0.492,0.248 3.699,-1.26 4.025,-0.086 0.264,0.967 1.154,0.84 1.725,1.135 2.72,1.439 8.228,1.377 11.144,1 4.25,-0.532 14.848,1.885 24.491,0.418 3.648,-0.553 8.65,-2.801 14.181,-4.694 7.143,-2.197 20.838,-7.064 17.949,-3.24 -1.742,2.305 -5.498,3.815 -7.941,5.207 -2.879,1.652 -5.85,3.174 -8.799,4.676 -0.254,0.127 -4.078,2.174 -2.568,2.107 1.785,-0.086 3.07,-0.396 4.775,-0.922 3.49,-1.082 6.342,-1.859 9.949,-2.066 0.19,1.492 -1.531,2.992 -2.824,3.229 3.418,0.064 7.02,0.433 10.412,0 -5.056,6.045 -11.797,9.38 -18.613,12.701 -7.676,3.736 -11.682,5.383 -19.545,9.273 -3.045,1.508 -7.291,4.844 -9.826,5.039 -4.289,0.317 13.66,-5.922 5.543,2.246 -5.488,5.52 -27.426,16.385 -33.738,20.754 -3.567,2.457 -6.996,5.223 -10.881,7.074 -3.987,1.915 -7.989,3.778 -12.012,5.612 -7.398,3.381 -14.324,7.109 -18.32,14.785 -1.85,3.539 -2.575,8.115 -3.604,11.988 C 35.084,1.002 33.193,4.98 31.277,8.41 27.561,15.107 16.463,15.541 10.213,13.697 7.33,12.848 5.244,10.57 3.102,8.598 0.709,6.404 1.238,3.131 0.5,-0.078" /></g><g
           transform="translate(98.7119,405.3643)"
           id="g72"><path
             id="path74"
             style="fill:#a72c31;fill-opacity:1;fill-rule:nonzero;stroke:none"
             d="M 0,0 C -9.961,1.65 -13.994,0.701 -23.842,-1.027 -17.451,5.746 -2.697,8.436 2.85,8.689 0.963,6.449 0.803,2.955 0,0" /></g><g
           transform="translate(168.292,300.5303)"
           id="g76"><path
             id="path78"
             style="fill:#a72c31;fill-opacity:1;fill-rule:nonzero;stroke:none"
             d="m 0,0 c -2.486,-3.01 -4.361,-6.547 -6.393,-9.92 -1.773,-2.953 -1.586,-6.199 -3.904,-8.656 -1.062,-1.121 -2.111,-3.444 -1.752,-4.865 0.391,-1.575 4.74,-1.842 6.098,-1.842 1.387,0 2.615,-0.641 3.867,-1.19 4.402,-1.953 3.08,-3.119 0.326,-2.65 -0.916,0.152 -1.816,0.934 -2.795,0.766 -1.076,-0.178 -1.713,-0.913 -3.029,-0.997 -2.018,-0.13 -3.332,-0.88 -5.356,-0.738 -1.21,0.078 -3.468,1.285 -4.529,0.574 -0.978,-0.668 -2.047,-0.943 -3.146,-1.296 -0.821,-0.264 -1.194,-0.639 -2.116,-0.733 -1.734,-0.18 -4.779,0.395 -6.265,-0.627 -1.863,-1.271 -2.08,-2.889 -4.182,-2.187 -1.322,0.445 0.278,3.716 1.016,4.148 0.808,0.475 1.619,0.943 2.453,1.379 1.047,0.537 2.398,0.023 3.277,0.477 0.241,0.13 0.539,0.433 0.725,0.658 -2.879,0.728 -5.725,2.203 -8.684,2.203 -1.908,0 -2.685,-0.654 -3.922,-2.275 -0.539,-0.702 -3.353,-2.708 -3.353,-0.381 0,2.427 3.756,6.605 5.869,6.912 3.297,0.459 5.768,-1.865 8.852,-1.994 3.093,-0.123 6.537,-0.649 8.297,2.763 1.521,2.957 3.751,5.266 5.734,7.893 2.01,2.658 2.209,1.846 4.004,4.973 0.887,1.537 3.187,6.687 4.054,8.066 C -4.398,1.178 -0.885,0 0,0" /></g><g
           transform="translate(176.3799,306.3604)"
           id="g80"><path
             id="path82"
             style="fill:#a72c31;fill-opacity:1;fill-rule:nonzero;stroke:none"
             d="m 0,0 c -0.916,-3.016 -0.871,-9.352 -2.023,-12.582 -1.213,-3.361 -2.288,-3.08 -3.153,-6.281 -1.803,-6.711 -15.652,2.705 -16.23,-5.047 3.633,-0.281 3.472,1.812 11.209,-0.473 0.551,-0.162 1.674,0.447 1.59,-0.681 -0.049,-0.627 -1.487,-0.899 -1.905,-0.922 -1.818,-0.084 -3.64,-0.233 -5.451,-0.479 -1.713,-0.242 -3.1,-0.492 -4.402,-1.742 -1.473,-1.406 4.517,-0.172 5.123,-0.158 3.58,0.094 5.81,-0.867 9.017,0.459 2.436,1.01 7.842,0.57 10.342,0.633 1.811,0.056 2.633,2.169 4.17,2.543 1.231,0.292 4.127,-1.948 4.858,-1.168 1.697,1.8 -5.686,4.017 -7.481,4.017 -1.707,0 -3.223,-0.285 -4.896,0.156 -2.227,0.596 -1.778,2.33 -1.291,4.248 1.564,6.061 3.793,11.485 4.56,17.803 C 2.691,0.396 2.994,1.316 1.541,1.389 1.541,1.201 0,0.184 0,0" /></g><g
           transform="translate(95.7725,405.6436)"
           id="g84"><path
             id="path86"
             style="fill:#000000;fill-opacity:1;fill-rule:nonzero;stroke:none"
             d="m 0,0 c 7.607,-2.977 9.459,-14.523 10.174,-21.641 0.396,-3.963 -0.307,-8.224 -0.406,-12.205 -0.112,-4.293 -0.137,-8.586 -0.223,-12.888 -0.086,-4.022 1.359,-7.832 2.285,-11.727 0.906,-3.764 4.248,-9.361 6.44,-12.402 4.722,-6.541 9.517,-12.944 16.779,-16.602 11.023,-5.539 25.769,-4.732 31.984,-15.519 0.922,-1.596 0.076,-2.129 2.074,-2.129 1.844,0 3.35,-1.575 3.557,0.552 0.315,3.231 -1.607,1.59 -2.707,4.854 -0.432,1.283 1.656,2.809 2.656,1.937 0.94,-0.806 2.774,-2.044 3.998,-1.775 2.993,0.633 4.399,4.957 3.985,0.465 0.488,0.248 3.701,-1.258 4.025,-0.086 0.26,0.967 1.154,0.84 1.723,1.135 2.72,1.439 8.228,1.377 11.144,1 4.252,-0.53 14.846,1.885 24.489,0.418 3.652,-0.551 8.652,-2.803 14.183,-4.694 7.147,-2.197 20.838,-7.064 17.951,-3.24 -1.744,2.303 -5.5,3.815 -7.941,5.205 -2.881,1.656 -5.85,3.176 -8.801,4.678 -0.256,0.127 -4.078,2.174 -2.564,2.109 1.781,-0.088 3.068,-0.398 4.769,-0.922 3.492,-1.082 6.344,-1.859 9.953,-2.068 0.186,1.492 -1.529,2.992 -2.824,3.229 3.418,0.066 7.016,0.433 10.41,0 -5.058,6.045 -11.797,9.38 -18.613,12.701 -7.676,3.736 -11.68,5.385 -19.541,9.275 -3.049,1.508 -7.297,4.842 -9.83,5.037 -4.287,0.319 13.66,-5.922 5.545,2.246 -5.49,5.522 -27.424,16.383 -33.742,20.754 -3.561,2.457 -6.996,5.223 -10.879,7.074 -3.989,1.916 -7.989,3.78 -12.014,5.614 -7.396,3.379 -14.324,7.109 -18.318,14.783 -1.848,3.539 -2.575,8.115 -3.604,11.988 -1.033,3.846 -2.926,7.823 -4.836,11.254 -3.722,6.699 -14.82,7.131 -21.07,5.289 C 7.33,12.848 5.244,10.57 3.104,8.6 0.711,6.404 1.236,3.129 0.504,-0.078" /></g><g
           transform="translate(364.7471,405.3643)"
           id="g88"><path
             id="path90"
             style="fill:#a72c31;fill-opacity:1;fill-rule:nonzero;stroke:none"
             d="M 0,0 C -9.957,1.65 -13.996,0.701 -23.842,-1.027 -17.449,5.746 -2.697,8.436 2.852,8.689 0.965,6.449 0.803,2.955 0,0" /></g><g
           transform="translate(434.3271,300.5303)"
           id="g92"><path
             id="path94"
             style="fill:#a72c31;fill-opacity:1;fill-rule:nonzero;stroke:none"
             d="m 0,0 c -2.486,-3.01 -4.359,-6.547 -6.395,-9.92 -1.769,-2.953 -1.584,-6.199 -3.902,-8.656 -1.062,-1.121 -2.109,-3.444 -1.752,-4.865 0.389,-1.575 4.742,-1.842 6.096,-1.842 1.39,0 2.619,-0.641 3.871,-1.19 4.398,-1.953 3.078,-3.119 0.324,-2.65 -0.914,0.152 -1.816,0.934 -2.795,0.766 -1.076,-0.178 -1.711,-0.913 -3.027,-0.997 -2.022,-0.13 -3.334,-0.88 -5.359,-0.738 -1.209,0.078 -3.467,1.285 -4.526,0.574 -0.976,-0.668 -2.049,-0.943 -3.146,-1.296 -0.821,-0.264 -1.198,-0.639 -2.116,-0.733 -1.738,-0.18 -4.779,0.395 -6.267,-0.627 -1.863,-1.271 -2.08,-2.889 -4.182,-2.187 -1.32,0.445 0.28,3.716 1.016,4.148 0.806,0.475 1.619,0.943 2.453,1.379 1.047,0.537 2.396,0.023 3.277,0.477 0.241,0.13 0.537,0.433 0.729,0.658 -2.885,0.728 -5.727,2.203 -8.688,2.203 -1.906,0 -2.685,-0.654 -3.922,-2.275 -0.539,-0.702 -3.353,-2.708 -3.353,-0.381 0,2.427 3.756,6.605 5.869,6.912 3.297,0.459 5.768,-1.865 8.852,-1.994 3.095,-0.123 6.535,-0.649 8.297,2.763 1.521,2.957 3.75,5.266 5.734,7.893 2.008,2.658 2.211,1.846 4.006,4.973 0.885,1.537 3.185,6.687 4.051,8.066 C -4.396,1.178 -0.881,0 0,0" /></g><g
           transform="translate(442.415,306.3604)"
           id="g96"><path
             id="path98"
             style="fill:#a72c31;fill-opacity:1;fill-rule:nonzero;stroke:none"
             d="m 0,0 c -0.918,-3.016 -0.871,-9.352 -2.025,-12.582 -1.209,-3.361 -2.286,-3.08 -3.147,-6.281 -1.805,-6.711 -15.656,2.705 -16.236,-5.047 3.635,-0.281 3.472,1.812 11.211,-0.473 0.551,-0.162 1.672,0.447 1.59,-0.681 -0.047,-0.627 -1.485,-0.899 -1.907,-0.922 -1.816,-0.084 -3.638,-0.233 -5.451,-0.479 -1.711,-0.242 -3.098,-0.492 -4.4,-1.742 -1.473,-1.406 4.515,-0.172 5.123,-0.158 3.58,0.094 5.808,-0.867 9.017,0.459 2.434,1.01 7.844,0.57 10.342,0.633 1.813,0.056 2.633,2.169 4.172,2.543 1.229,0.292 4.127,-1.948 4.854,-1.168 1.703,1.8 -5.682,4.017 -7.477,4.017 -1.707,0 -3.223,-0.285 -4.896,0.156 -2.229,0.596 -1.78,2.33 -1.293,4.248 1.562,6.061 3.793,11.485 4.562,17.803 -1.35,0.07 -1.043,0.99 -2.5,1.063 C 1.539,1.201 0,0.184 0,0" /></g><g
           transform="translate(361.8076,405.6436)"
           id="g100"><path
             id="path102"
             style="fill:#000000;fill-opacity:1;fill-rule:nonzero;stroke:none"
             d="m 0,0 c 7.607,-2.977 9.463,-14.523 10.176,-21.641 0.394,-3.963 -0.307,-8.224 -0.408,-12.205 -0.112,-4.293 -0.139,-8.586 -0.223,-12.888 -0.082,-4.022 1.359,-7.832 2.285,-11.727 0.904,-3.764 4.248,-9.361 6.44,-12.402 4.724,-6.541 9.517,-12.944 16.783,-16.602 11.017,-5.539 25.765,-4.732 31.982,-15.519 0.922,-1.596 0.074,-2.129 2.072,-2.129 1.844,0 3.352,-1.575 3.561,0.552 0.311,3.231 -1.609,1.59 -2.709,4.854 -0.436,1.283 1.656,2.809 2.656,1.937 0.938,-0.806 2.774,-2.044 3.996,-1.775 2.991,0.633 4.401,4.957 3.983,0.465 0.492,0.248 3.705,-1.258 4.029,-0.086 0.26,0.967 1.154,0.84 1.721,1.135 2.72,1.439 8.228,1.377 11.144,1 4.254,-0.53 14.848,1.885 24.491,0.418 3.652,-0.551 8.65,-2.803 14.181,-4.694 7.149,-2.197 20.838,-7.064 17.955,-3.24 -1.748,2.303 -5.504,3.815 -7.947,5.205 -2.879,1.656 -5.846,3.176 -8.799,4.678 -0.254,0.127 -4.078,2.174 -2.562,2.109 1.779,-0.088 3.068,-0.398 4.769,-0.922 3.49,-1.082 6.342,-1.859 9.953,-2.068 0.186,1.492 -1.529,2.992 -2.822,3.229 3.416,0.066 7.014,0.433 10.406,0 -5.056,6.045 -11.797,9.38 -18.613,12.701 -7.676,3.736 -11.678,5.385 -19.539,9.275 -3.051,1.508 -7.297,4.842 -9.832,5.037 -4.285,0.319 13.66,-5.922 5.543,2.246 -5.488,5.522 -27.42,16.383 -33.738,20.754 -3.561,2.457 -6.996,5.223 -10.881,7.074 -3.987,1.916 -7.989,3.78 -12.012,5.614 -7.398,3.379 -14.324,7.109 -18.32,14.783 -1.846,3.539 -2.575,8.115 -3.604,11.988 -1.033,3.846 -2.924,7.823 -4.834,11.254 -3.722,6.699 -14.82,7.131 -21.07,5.289 C 7.33,12.848 5.244,10.57 3.102,8.6 0.715,6.404 1.238,3.129 0.506,-0.078" /></g></g></g></g></svg>